/* XPM */
static char *a1c9f7fadb3d4dfbfe89e85ff1b10326fM7fKJW9O1Zuu6HL[] = {
/* columns rows colors chars-per-pixel */
"50 50 245 2 ",
"   c #36182A",
".  c #3D2928",
"X  c #411C27",
"o  c #4A2828",
"O  c #562C2A",
"+  c #4C342A",
"@  c #48352B",
"#  c #5D332C",
"$  c #56382C",
"%  c #482B33",
"&  c #4D3B31",
"*  c #4C3434",
"=  c #523D34",
"-  c #5C3B34",
";  c #583836",
":  c #522F34",
">  c #64382C",
",  c #683D2D",
"<  c #673529",
"1  c #733926",
"2  c #643C34",
"3  c #653C37",
"4  c #55241D",
"5  c #4E4137",
"6  c #554135",
"7  c #5B4335",
"8  c #554339",
"9  c #5A453B",
"0  c #5D493C",
"q  c #5F4837",
"w  c #69412C",
"e  c #72442C",
"r  c #7A482D",
"t  c #634335",
"y  c #6A4335",
"u  c #64453B",
"i  c #6B4439",
"p  c #634B3C",
"a  c #6B4D3C",
"s  c #6A4934",
"d  c #734B35",
"f  c #7B4C34",
"g  c #734C3A",
"h  c #794D39",
"j  c #754534",
"k  c #6C503E",
"l  c #66503F",
"z  c #7C5334",
"x  c #74533C",
"c  c #7C533B",
"v  c #7C5839",
"b  c #5C4C43",
"n  c #5A4744",
"m  c #5E5044",
"M  c #654D41",
"N  c #6A4D43",
"B  c #614645",
"V  c #714E43",
"C  c #645144",
"Z  c #6C5344",
"A  c #65544A",
"S  c #6C564A",
"D  c #6C594C",
"F  c #69584A",
"G  c #735544",
"H  c #7B5345",
"J  c #745945",
"K  c #7C5C44",
"L  c #745C4B",
"P  c #7A5D4B",
"I  c #75554A",
"U  c #6B5E54",
"Y  c #675B54",
"T  c #795E51",
"R  c #725B51",
"E  c #7C614D",
"W  c #7C6044",
"Q  c #756154",
"!  c #7C6353",
"~  c #7B695B",
"^  c #78665A",
"/  c #6D6259",
"(  c #7A6D64",
")  c #776E64",
"_  c #7C7267",
"`  c #824D32",
"'  c #835334",
"]  c #835A35",
"[  c #82543B",
"{  c #845B3C",
"}  c #8B5C3B",
"|  c #8B5736",
" . c #945D36",
".. c #8A512C",
"X. c #8C633D",
"o. c #88643B",
"O. c #936A3D",
"+. c #9C6C3B",
"@. c #976339",
"#. c #97753F",
"$. c #A16E3D",
"%. c #A56B35",
"&. c #AB773D",
"*. c #B57C37",
"=. c #835D43",
"-. c #8A5C42",
";. c #825A48",
":. c #825B51",
">. c #836343",
",. c #8B6443",
"<. c #8C6B44",
"1. c #83644C",
"2. c #896A4B",
"3. c #926542",
"4. c #936C43",
"5. c #9C6C45",
"6. c #926D4B",
"7. c #976949",
"8. c #8D744A",
"9. c #947445",
"0. c #93714B",
"q. c #9B734C",
"w. c #9C7A4D",
"e. c #9C7646",
"r. c #836653",
"t. c #846A54",
"y. c #8B6C54",
"u. c #846C5A",
"i. c #8B6D5A",
"p. c #8C6652",
"a. c #926D56",
"s. c #8D7254",
"d. c #8C725C",
"f. c #89755C",
"g. c #937355",
"h. c #9C7554",
"j. c #9A7A53",
"k. c #93735B",
"l. c #99765C",
"z. c #967A5C",
"x. c #9C7B5C",
"c. c #947B54",
"v. c #A47443",
"b. c #AD7D44",
"n. c #A47B4B",
"m. c #A77848",
"M. c #B27E41",
"N. c #A37A57",
"B. c #837265",
"V. c #8C7361",
"C. c #88786A",
"Z. c #937561",
"A. c #957A64",
"S. c #9B7C63",
"D. c #947C6A",
"F. c #9B7E69",
"G. c #947669",
"H. c #897D73",
"J. c #907769",
"K. c #A27E63",
"L. c #AD7F60",
"P. c #B8813E",
"I. c #C88E3F",
"U. c #99815B",
"Y. c #8E805D",
"T. c #A5824D",
"R. c #AA844C",
"E. c #A98447",
"W. c #B58443",
"Q. c #B88648",
"!. c #A58353",
"~. c #AC8553",
"^. c #AA8759",
"/. c #B68A55",
"(. c #B6955A",
"). c #B19355",
"_. c #B8A45E",
"`. c #9D826C",
"'. c #9B8566",
"]. c #8E8278",
"[. c #968577",
"{. c #A48265",
"}. c #A98464",
"|. c #A4846A",
" X c #A9866A",
".X c #AC8A6D",
"XX c #A78C67",
"oX c #B08D6D",
"OX c #AC9569",
"+X c #BA9965",
"@X c #AC8D73",
"#X c #A48971",
"$X c #B18E72",
"%X c #AD9378",
"&X c #B49375",
"*X c #B99576",
"=X c #B4957A",
"-X c #B99679",
";X c #BC9A7C",
":X c #B99977",
">X c #BBA57C",
",X c #BCA669",
"<X c #C3944B",
"1X c #C29959",
"2X c #C28C46",
"3X c #CCAA56",
"4X c #C29C65",
"5X c #C19D7D",
"6X c #C4A267",
"7X c #C7B36B",
"8X c #C7AA77",
"9X c #CCB67C",
"0X c #D3B370",
"qX c #E0C96E",
"wX c #988D82",
"eX c #9B9285",
"rX c #A3968A",
"tX c #A6988A",
"yX c #A89E92",
"uX c #ACA194",
"iX c #AFA599",
"pX c #AFA99E",
"aX c #B2A699",
"sX c #B4AA9C",
"dX c #B4AA97",
"fX c #B8AB8A",
"gX c #B8AEA2",
"hX c #BDB2A4",
"jX c #B9B2A9",
"kX c #C19E81",
"lX c #C5A282",
"zX c #C5AD88",
"xX c #C8B787",
"cX c #CFBA8F",
"vX c #C3BAAC",
"bX c #C3B8A8",
"nX c #D5C586",
"mX c #D8C897",
"MX c #D3C893",
"NX c #D6CDB1",
"BX c #E8DBA5",
"VX c #E7DEB1",
"CX c #FEFEBA",
"ZX c #EFE9B3",
"AX c #F5F4E9",
/* pixels */
" XS.F F z.{.{.J 6 Z p a = P L q g.l.`.iXeX].M L S..X&XoXE 8 l.l.1.@ 8 r.P 1.a b ^ ^ D.C eXsXaXiXF |.",
"C `.@X#XE $ 0 u.#XA.S 8 V.F.`.V.E 7 8 D.@X;Xt.V.d.D a 0 F C 8 6 8 ! A.|.S 8 ! ! L C = A B.`.D.U F A.",
"F ;X.X$X$Xp @X;X&X-X@Xu.lX*X&X*X$XE Q lX*X-Xr.k.5XA.b Z.Z.k.d.q ! *X{. Xy.L S.k.k.k.p |.*X&X5X! k..X",
"S ;X$X&X{.Z &X-X=X*X X! $X X{.{.g.x ! lX*X5XP t.;Xp.+ 1.i.i.k.t a  X{..XP M Z.i.i.k.a S. X X;Xi.r..X",
"0 A.S.Z $ = r.d.k.P S 0 Z 1.y.k p & 9 {.S.d.F L r.A Y 9 7 G - + b J r.g.C = t J P Z = E a.k.k.J 6 t ",
"|.i.& F u.Z.t.P 0 D.@X=XF.E 0 B.eXrX[.A C d.F.r.^ vXvXiX) 5 P A.K.Z.p C ;X|.J + M A.@X|.t Z `.@X#XL ",
"*X-XM i.Z.k.k.k.! =X$X@X*X$XU aXyXtXuXwXu.S.k.P ( hXiXsXhXQ {.S.k.S.P u.5X*X;XZ `.lX*X;XL F.lX*X-X;X",
";X{.= L r.k.S.r.6 &X&X*X X1.= rXyXyXrX( ! @X%X=XdXNXNXvXsXA k.k.S.k.$ ! 5X&X5Xr.`.;X=X5XG y.&X@X X.X",
"y.Z ^ U 0 q p & & L y.P q M ^ C.( B.rXdXMXmXxXxX9X8X8X>XzXxX>X#XE @ 0 D l J 1.6 ! |.k.! A D G 1.y.1.",
"C iXvXgXyXb 0 `.=X.X7 Q =X;X&X.XfXcXmX8X/.T.R.R.n.b.n.e.9.w.).7X7X'.D.D.V.F = g.1.@ / yXjXhXuXB.7 C ",
"_ bXaXaXhX~ d.lX*X8X! F.:XK.=XVXBX1XE.T.^.).^.v.!.^.v.j.!.w.<.<.T.3X7X`.G.V.L N.h.G jXvXsXsXhXaXA V.",
"/ bXgXhXrXA t.5X;XlXL L S.zXZX0XW.R.T.v.W.<XQ.Q.).(.T.3.%.$.@.3.<.] E.3X+XA q N.h.t wXsXhXhXbXuXb P ",
"b H.[.( F F r.k.k.k.A Y fXVXW.E.w.m.<X3X*.W.1X~.^.n.~.*.W.| E.@.} o.>.o.3X8.A 1.a & ~ ~ _ [.H.Y m 0 ",
"S.Z.L J {.K.x.l.t b hXVXBX&.E.7.(.Q.Q.Q.6X:X#XZ.c.s.y.U.XX'.4.@.$.4.c =.] 1X8X`.6 #X;X*X1.. D u.S.Z.",
"F.|.i.r.}.l.l.K.1.U NXBXE.R.!.R.~.*.(.>Xd.d e r { u d e d 1.'.e.+.X.{ 4.X.] Q.+XL &X@X=X{.M |.k.i.k.",
"r.r.N 7 1.k.x.K.x F ZXE.T.j.).W.%.8XA., ..M.1XW.1Xx.b.6Xn.` e K c.a 7.@.z o.] Q.l `.*X@Xs.= y.k.k.1.",
"C.H.[.B.8 = K G 8 fX6X#.!.b.&.P.6XK e /.+X).4.O.6Xj.+.3.v.n.~.f e e.3.r ] d } O.w.E S ! d.J.! p 8 A ",
"aXaXuXuX].^ 5 R fXmX+.!.Q.2X%.4XL v Q.e.,.b.%.&.9Xh. .v.$.| {  .m.Z <.x c -.' v v.L.L #XlX;X;Xk.) vX",
"yXyXuXrXB.C.U V.mX^.e.n.W.W.(.r.e j.^.&.&.m.+Xj.cXn.1.XX6.3.+./.t.O { ,.X.f } z { m.J  X;X=X;XK.].hX",
"eXeX].( F A 0 C.MXO.w.v./.R.'.w <X5.q.(.~.x.g.e nXn.> x.s.q.+Xs.# /.` X.' { y d v m.t V.*Xk.P + ( aX",
"d.^ d.u.S.@X|.xX,XO.e.<X&.(.k v.).@. .+XOXw 1X5.nX6.f /.< OXOX+ } e.K c O., c f z $.[ 9 & 0 t.r.M D.",
"$XF.;X;X&X.X XmXT.<.4.I.P.U.1 m.).,./.P +.0Xm.6X8X(.}.t >X|.$ 6.X./.g i <.h ' f z ,.7.I ; y.{.g.J $X",
"p.J .Xk.z. X=XMX9.c.^.W.(.=.@.!.} n.OXX. .R.9X!.^.9.o.).XXo 6.!.1.z ' h 3.c { } f v 5.t * y.K.a.J .X",
"6 F t.l t a '.9X] 8.~.W.n.d v.O. .v.,.e.(.+Xw.z 8Xz.g O.] s.0.x J d P ' | =.K j z { 5.;.R p Z M 9 F ",
"! K.l.x.l.y.Y.,Xo.o.~.$.7.z &.+.W.4Xj.v.T.(.d 4XAXCX#.t m.x G N.U.1.,.' @.{ - { u { q.}.zXl t.=X%X#X",
"P l.k.k.k.i.OX_.O.q.!.3.q.t.@X>XxXcXcXmX8Xn.'.nXCXqX1 './.5.cX9X8X>XXXg.t.K k r.x ' h.N.;Xl d.;X&X&X",
"x l.k.k.k.a c.+Xo.0.~.,.9.- y < < 2 O X y E.O O.*.1 O . q.t   o %   % : 9 J M 2.y ' 6.N.5Xp k.;X&X.X",
"q t.i.i.J L XX(.v ,.b.v.8.u n.&. .h.K h.x.e.w.d O % o g.N.n g.q.D B =.,.-.1.p [ d >.g.1.L @ ! A.S q ",
"%X=X=X@XJ  XoX,X{ >.@.v.9.a @.O.=.h.!.q., d.T.x OXL L /.P % [ j.S E y.t <.W d r x K q.7 u.L u.F.A.A.",
";X*X$X.XL }.}.7X<.o.{ =.9.o.r { x.N <.e +XXX% 0.^.N.h.% { E.H ! = q.g 2 N.J 2 > x 1.q.Z k.L d. XK.K.",
"r.J P L 8 J P (.w.x y.3.X.9.d =.v h ..+XXX  1.t Y.Z   V o @.:X* j } 3 j w.9 c c J x.=.= E a Z P P 1.",
"@ u.`.`.`.i.& OX&.{ >.` 3.,.W h f r /.y.7 r.!.o 0X=.X  .a.T t ,.r c > n.x - y x >.~.s F =X%X@X#X8 9 ",
"! &X.X.X.X{.Z oXP.{ { K 1.{ <.h ' m.y.o g =.2.P 7Xv R Z.D ; - j c h 3.j.y > i J 6.q.t r.kX*X;X:Xp T ",
"E &X.X.X$X1.p =X/.$.' x c f } X.} Z O [ =.6.t ; ^.K * : J [ g 3 # j }.2 y j d 1.N.7.G L lX;X;X*X= Z ",
"Z r.r.k.P = & ! p.&.[ ,.f 3.a { 2.* =.4.i.,.h , w.M O [ 7.c ! r j x.Z ; y =.,.g.7.u J M Z.k.t.L = 8 ",
"P L S 0 d.k.F.z.! c v.v c y -.} d <.x < t # X.w 3.t # 6.N # 2 -.}.a I g 2 S 0.^.H J.A.G.D = ! ! u.t.",
"L L - Z {.{.{.K.r.p 3.} [ d ` r M K ,.p.h y o y f * a # # -.n.z.a ; g 1 G <.XX[ 9 V.r.i.i.S k.r.r.r.",
"G Z ( ~ Q J a F ~ u.i.7.3.' y - -.c 2 J 1.2.1.1.K b s.g.x.g.S ; 3 } # N >.}.p.M U L R Q 8 @ r.r.r.r.",
"S B.tXrXrX[.A #X-X&X&Xk. .3.f u 2 # r c : N L Z J S S Q p % t 3 O O S <.XXp.H `.F.S.S.S.y.8 u.J I T ",
"].].].].C.^ C {..X$X.X&XG H s.c y , j , 3 G - t u u B ; , 2 > i h K 0.{.:.= A.S.k.y.r.y.P 8 u.! L M ",
"`.`.D.V.C 9 J Z E y.r.Z 6 q t r.1.x x t ; > V ; c c ; - h # 3 1.t.A.S.i * D L a C D S 6 Q u.t.t.8 q ",
":X*X&X;XS.J l.r.6 D.`.#X@X&Xt.- H r.r.K g G G * n n B M E E s.U.F.H H k.'.{.K.J d.{.K.! &X*X&X*XJ d.",
".X&X&X;Xk.7 y.1.7 ;X8X;X*X5Xk.L a.;.H r.y.u.2.2.0.c.c.U.z.'.k.-.2 o {.oX}.K.}.r.k.x.k.L $X&X.X{.7 L ",
"D u.r.k.E C t.L 0 u.y.y.r.d.J a g.y.J N H :.I H ;.t.i.:.V - o = M 5 E y.E K E 6 8 J J q J l J Z p L ",
";X&X'.0 t.&X&X@X=XJ @ J L E ! t.Z Z @X@X$X XK.N S Z.k.K.y.8 D.`.`.`.V.8 t.k.K.Z u.S.k.k.1.6 S..XoX.X",
"&X*X5X.X1.y.l. X.XP y.S.k.k.k.l.1.L ;X.X X.X:XP z.*X.X.X{.Z Z.i.y.y.y.Z .X.X{.Z k.x.g.k.N.a S..X{.{.",
"&X XF.E E 1.J J J 7 y.l.k.k.y.K p D x.x..X{.1.8 L k.S..XK.q i.i.k.k.r.7 S.1.C b E y.l.p.G b ! g.K.k.",
"! u.r.p l Z ! d.r.q & Z G J Z u.V.uXwX~ p C V.=X@XF.i.L L C C M M Z 0 C p & u.! S p p ^ yXvXyXB.M u.",
".X.X.XoXt.F |.k.S.y.M p 6 & |.oXk.iXvXvX_ F.lX&X*X*X-Xq u.S.Z.P @ u.k.x.k.p ! T ! T 8 jXvXgXvXpX^ ;X",
" X X{. X1.J S.k.k.r.Z Z M 7  X{.d.uXgXhXH.S.;X&X&X$X*Xp r.i.i.P 6 x.g.g.a.0 T P P L 9 gXhXhXhXuX^ &X"
};
