/* XPM */
static char *_fcb8dd0d1d94318d54774714731d6bcHbj3wWBETvKuae1q[] = {
/* columns rows colors chars-per-pixel */
"50 50 163 2 ",
"   c None",
".  c #26130C",
"X  c #371C0D",
"o  c #291C11",
"O  c #331D15",
"+  c #331F18",
"@  c #1A210E",
"#  c #1D2612",
"$  c #222914",
"%  c #332117",
"&  c #352119",
"*  c #3A241D",
"=  c #263218",
"-  c #28371B",
";  c #2C3B1D",
":  c #36351F",
">  c #3E2720",
",  c #3E2921",
"<  c #3E3224",
"1  c #323A22",
"2  c #59161F",
"3  c #58321F",
"4  c #771C24",
"5  c #412B22",
"6  c #452C2D",
"7  c #5A2B26",
"8  c #46342D",
"9  c #533222",
"0  c #573B26",
"q  c #4E2C37",
"w  c #572331",
"e  c #453D30",
"r  c #503E34",
"t  c #6E2025",
"y  c #26411E",
"u  c #394C28",
"i  c #36542B",
"p  c #3C542D",
"a  c #355D2A",
"s  c #3B5D2D",
"d  c #3C5E30",
"f  c #2D6728",
"g  c #32652B",
"h  c #3E6931",
"j  c #397731",
"k  c #424529",
"l  c #444B2B",
"z  c #46542D",
"x  c #484839",
"c  c #514138",
"v  c #555739",
"b  c #6D4C33",
"n  c #436433",
"m  c #4C643C",
"M  c #486937",
"N  c #506137",
"B  c #506238",
"V  c #546D3D",
"C  c #447437",
"Z  c #4B733B",
"A  c #4D7A3E",
"S  c #477439",
"D  c #52743E",
"F  c #517B3F",
"G  c #786437",
"H  c #7A793D",
"J  c #353D48",
"K  c #3D424F",
"L  c #375C7F",
"P  c #4C4B4C",
"I  c #4E4340",
"U  c #5D4E45",
"Y  c #5F5548",
"T  c #5F565A",
"R  c #7B4E4E",
"E  c #65584F",
"W  c #4C6A42",
"Q  c #566A47",
"!  c #4E7840",
"~  c #527742",
"^  c #547E42",
"/  c #587F44",
"(  c #5B7B4F",
")  c #586250",
"_  c #566E53",
"`  c #587952",
"'  c #6E764A",
"]  c #6F685D",
"[  c #6B6454",
"{  c #617F5A",
"}  c #5D6667",
"|  c #636A6A",
" . c #776E64",
".. c #617769",
"X. c #7E766D",
"o. c #747E77",
"O. c #8A643C",
"+. c #90654B",
"@. c #846A5C",
"#. c #A1774C",
"$. c #8B6263",
"%. c #847D74",
"&. c #47843E",
"*. c #558545",
"=. c #598446",
"-. c #588A47",
";. c #5A8749",
":. c #5C8D4B",
">. c #4E9344",
",. c #5F944E",
"<. c #608747",
"1. c #61834C",
"2. c #688C4B",
"3. c #61944E",
"4. c #628A51",
"5. c #708E56",
"6. c #649651",
"7. c #6A9552",
"8. c #649A52",
"9. c #6A9C54",
"0. c #709E59",
"q. c #66A155",
"w. c #6AA256",
"e. c #6CA459",
"r. c #6EAA5A",
"t. c #72A45B",
"y. c #73AC5D",
"u. c #73B15E",
"i. c #7C9C69",
"p. c #76AF60",
"a. c #79A666",
"s. c #74B460",
"d. c #9B9142",
"f. c #AA8F4D",
"g. c #BE8A43",
"h. c #BF9F48",
"j. c #A78558",
"k. c #B59350",
"l. c #8A857C",
"z. c #8E887F",
"x. c #C89847",
"c. c #C0974F",
"v. c #C79D4B",
"b. c #D2A44C",
"n. c #D6AA4E",
"m. c #DDB350",
"M. c #3F6081",
"N. c #28659E",
"B. c #3C689D",
"V. c #2767A8",
"C. c #3774AC",
"Z. c #445D80",
"A. c #5D7697",
"S. c #697687",
"D. c #6F7F96",
"F. c #7E828E",
"G. c #7A8C9C",
"H. c #4596C6",
"J. c #8E8980",
"K. c #96948A",
"L. c #A5878A",
"P. c #A8908F",
"I. c #A88D90",
/* pixels */
"                                                                                                    ",
"                                                                                                    ",
"                                                                                                    ",
"                                                                                                    ",
"                                                                                                    ",
"                                                                                                    ",
"                                                          ! i                                       ",
"                                                        s r.9.s                                     ",
"                            A a                         Z y.p.9.                                    ",
"                            q.S                         ;.y.y.s.:.                                  ",
"                          A u.-.                        9.y.y.s.r.                                  ",
"                          *.s.r.s                     Z y.y.s.r.8.h                                 ",
"                          *.s.s.:.                    8.s.s.8.d                                     ",
"                          A u.s.s.*.                Z y.s.u.Z                                       ",
"                            8.s.e.*.Z :.,.:.*.Z     3.s.s.y.M                                       ",
"                            n :.Z 9.y.y.y.n d q.,.A y.y.y.u.8.i                                     ",
"                              y i r.y.y.y.:.A 8.r.q.y.y.y.s.r.Z                                     ",
"                              V 6.u.y.y.y.;.n Z e.s.y.y.u.e.^                                       ",
"                              B p 6.u.s.;.- = ; Z s.u.e.,.W                                         ",
"                            i u $ M s.u.s @ # = n u.6._ | P                                         ",
"                            n p = n s.y.=.- # ; ;.5.o.| P                                           ",
"                          ;.t.e.6.*.q.t.y.6.Z / 9.[ } W                                             ",
"                          :.t.t.y.u.y.y.y.y.u.s.7.Y 4.                                              ",
"                          ;.e.0.6.y.e.:.( Q Q 9.9.2.~                                               ",
"                          ` 9.w.;.~ 0 6 q w 2 v u.D %                                               ",
"                        S.G...{ ) x 9 7 t 4 b 7.~ < + & O * * O                                     ",
"                      8 S.B.A.F.T m ;.=.V N m p 1 , * 5 * 5 5 * O                                   ",
"                    X I D.C.V.Z.K     : < , O e v & * * * * > O l 9.:.D G O.                        ",
"                      } S.N.H.L       & , O & c  ., , * O       p w.s.r.' #.                        ",
"                        J   M.U 3   F k O   & U %.8 5 5 * O     0 <.q.2.f.c.                        ",
"                                9 B / F       Y l.c 5 5 & O   R @.H d.h.b.v.                        ",
"                                  z n z        .z.E , 5 * O   $.P.k.m.n.n.g.                        ",
"                                            E l.K.X.5 , * % . R I.j.n.n.x.                          ",
"                                            ] l.K.J.r , * & .   L.j.b.g.                            ",
"                                            1.i.K.z.U * > * o     +.                                ",
"                                            :.s.a.i.Q * 5 k a g                                     ",
"                                          ,.&.8.s.s.9.V 1.-.g                                       ",
"                                        3.>.f s *.3.:.3.s.r.S                                       ",
"                                        q.j             8.s.8.                                      ",
"                                        e.C               q.r.                                      ",
"                                      3.q.h               :.u.*.                                    ",
"                                                            y.3.                                    ",
"                                                            r.e.                                    ",
"                                                            9.2.                                    ",
"                                                                                                    ",
"                                                                                                    ",
"                                                                                                    ",
"                                                                                                    ",
"                                                                                                    ",
"                                                                                                    "
};
