/* XPM */
static char *ed6757de8a61497bdd230d6f6797519dYEraiFvR3mTVKM31[] = {
/* columns rows colors chars-per-pixel */
"50 50 237 2 ",
"   c #1C0E0D",
".  c #160A0B",
"X  c #1E110E",
"o  c #1D1A09",
"O  c #1E1110",
"+  c #22120E",
"@  c #28170E",
"#  c #241412",
"$  c #291612",
"%  c #2C1A15",
"&  c #2D1D19",
"*  c #271817",
"=  c #331C15",
"-  c #321E19",
";  c #381F18",
":  c #2D211A",
">  c #362015",
",  c #3C2216",
"<  c #35211C",
"1  c #3C231B",
"2  c #37291A",
"3  c #2A220C",
"4  c #301F20",
"5  c #362521",
"6  c #3A2622",
"7  c #3C2A25",
"8  c #3D2D28",
"9  c #372822",
"0  c #3C3322",
"q  c #442A1F",
"w  c #4C2E1E",
"e  c #42261B",
"r  c #47391C",
"t  c #55351D",
"y  c #432B23",
"u  c #4A2D22",
"i  c #422F29",
"p  c #422720",
"a  c #4E3125",
"s  c #44322C",
"d  c #4A352D",
"f  c #483929",
"g  c #533325",
"h  c #5B3A25",
"j  c #543529",
"k  c #543A2D",
"l  c #5B3B2D",
"z  c #593629",
"x  c #4C3A32",
"c  c #4A3832",
"v  c #533D35",
"b  c #5D3E31",
"n  c #543F38",
"m  c #613E2D",
"M  c #613E23",
"N  c #613E30",
"B  c #51501B",
"V  c #554136",
"C  c #594236",
"Z  c #55433A",
"A  c #5B453B",
"S  c #5D493D",
"D  c #564B33",
"F  c #574F2A",
"G  c #64412E",
"H  c #684525",
"J  c #644332",
"K  c #6A4633",
"L  c #6D4936",
"P  c #634B3D",
"I  c #6D4B39",
"U  c #614839",
"Y  c #734D3A",
"T  c #754D37",
"R  c #665638",
"E  c #76513D",
"W  c #7A533E",
"Q  c #645A2C",
"!  c #6C6A2C",
"~  c #6A6339",
"^  c #717129",
"/  c #5D4C42",
"(  c #594641",
")  c #5E5248",
"_  c #634D43",
"`  c #664E46",
"'  c #655144",
"]  c #6B5445",
"[  c #64534A",
"{  c #6B564A",
"}  c #6D594C",
"|  c #675849",
" . c #735543",
".. c #7D5640",
"X. c #745946",
"o. c #7E5943",
"O. c #745C4C",
"+. c #7A5E4D",
"@. c #715648",
"#. c #6C5C52",
"$. c #735D52",
"%. c #795E50",
"&. c #7C624E",
"*. c #746D41",
"=. c #6E6156",
"-. c #756255",
";. c #7B6454",
":. c #75645A",
">. c #7A655A",
",. c #7C695D",
"<. c #7C6957",
"1. c #7C6D62",
"2. c #776C63",
"3. c #7E7267",
"4. c #865D3D",
"5. c #805741",
"6. c #835C45",
"7. c #875E47",
"8. c #8A6146",
"9. c #84624C",
"0. c #8B634A",
"q. c #896349",
"w. c #92694E",
"e. c #91674D",
"r. c #836653",
"t. c #846A55",
"y. c #8B6C54",
"u. c #836B5B",
"i. c #8B6E5A",
"p. c #80655B",
"a. c #926C52",
"s. c #906F5B",
"d. c #8D715C",
"f. c #85715C",
"g. c #93735B",
"h. c #98765D",
"j. c #9C795D",
"k. c #967257",
"l. c #A37A5C",
"z. c #836D61",
"x. c #847264",
"c. c #8B7464",
"v. c #85766A",
"b. c #8A776B",
"n. c #8C7A6C",
"m. c #877A67",
"M. c #957963",
"N. c #9B7C64",
"B. c #937D6C",
"V. c #967964",
"C. c #8C7E72",
"Z. c #857B70",
"A. c #917E71",
"S. c #A17F64",
"D. c #9C826D",
"F. c #97816E",
"G. c #8D8175",
"H. c #8F867D",
"J. c #958374",
"K. c #9B8573",
"L. c #9D8B7B",
"P. c #98887A",
"I. c #9F926F",
"U. c #A48266",
"Y. c #A3846B",
"T. c #A9866A",
"R. c #AC8A6D",
"E. c #A8876B",
"W. c #B18D6E",
"Q. c #A48B74",
"!. c #AB8D74",
"~. c #A38E7C",
"^. c #A38770",
"/. c #B18F72",
"(. c #A3907D",
"). c #AD927B",
"_. c #AD9075",
"`. c #B49275",
"'. c #B99676",
"]. c #B3957B",
"[. c #B99679",
"{. c #BC9A7B",
"}. c #BA9877",
"|. c #A3966F",
" X c #858250",
".X c #C19D7E",
"XX c #9C9185",
"oX c #9B8F83",
"OX c #A49383",
"+X c #AA9582",
"@X c #AA9986",
"#X c #AC9C8B",
"$X c #A6998A",
"%X c #B19D8C",
"&X c #B39B86",
"*X c #A99E92",
"=X c #B3A18D",
"-X c #B9A38E",
";X c #ADA093",
":X c #AEA59A",
">X c #AFA89B",
",X c #B4A493",
"<X c #BCA995",
"1X c #B2A699",
"2X c #B4AA9B",
"3X c #BCAD9C",
"4X c #BAA692",
"5X c #BFB09E",
"6X c #ADA08F",
"7X c #B8AEA2",
"8X c #BDB2A4",
"9X c #BEB5A8",
"0X c #C5A183",
"qX c #C0AD98",
"wX c #C3B29E",
"eX c #CAB49D",
"rX c #C4B5A3",
"tX c #CCBAA5",
"yX c #C4B9AB",
"uX c #CCBCAB",
"iX c #C6B7A6",
"pX c #D0BEAB",
"aX c #D2C1AC",
"sX c #D4C5B2",
"dX c #DCCEBB",
"fX c #D9CAB7",
"gX c #DDD0BE",
"hX c #CEC2B4",
"jX c #E1D1BE",
"kX c #E0CCB5",
"lX c #DED3C3",
"zX c #E2D5C3",
"xX c #E8DCCA",
"cX c #EDE1CF",
"vX c #EFE3D2",
"bX c #F5EAD9",
"nX c #FFF4E1",
/* pixels */
"T.N.| | h.U.U.X.V ] P P v +.+.S s.h.F.:XoXJ._ +.j.U.R.W.&.A h.h.9.a A r.+.9.I ( >.>.B.' oX3X1X:X| Y.",
"' D.!.^.&.k S u.^.M.] Z c.B.D.c.;.U V n._.{.d.b.C.J.<.A _ A A C A t.V.Y.] Z ;.<.O.' v [ x.K.B.#.} M.",
"{ {.R././.P !.{.`.[.!.f.0X'.[.[.T.X.,.4XB.c.J.dXzXcXOXs %X%X;.k | W.T.T.i.O.N.g.g.g.P Y.'.`..X;.g.R.",
"{ {./.`.U.] `.[.[.'.Y.<./.E.j.M.+XiXzXzX1._ $.~.x.u.} < #X8X@XJ.oX@Xy.R.+._ M.i.i.s.P N.T.E.{.i.r.R.",
"S M.N.] k v r.d.g.+.] / ] 9.B.fXbXzX#X_ 5 $ ,.xXuX,XrXd y i Z _ z.3XG.&.' v U X.+.] v &.s.k.g.@.C U ",
"Y.i.x { u.M.t.+.S B.`.`.f.yXhX3XA.v S ,.-.b.P.cXzXtXaX-.x.,.P < < d u.,XP.t.I k _ V.!.Y.U ] D.!.Q.O.",
"'.[._ i.M.g.g.h.;.{.T.K.,XiXb.s d A #XJ.5XtXC.OXb.,.B.x.fX3X8XC.Z & 6 C L.iXK.U Y.0X'..X+.B.0X'.[.{.",
"{.U.k O.r.g.V.r.C Y.L.#XK.x & i P.lXvX,.>.,.s s 7 i s c $.b.zX6X%X9X-.c 7 n.iX/ M.'.[..X] t.`.!.Y.R.",
"y.] :.#.S A P x s 2XfX;.6 % :.yX1XdX#XZ 6 i 7 7 5 8 s s i 6 Z } gXcXcXv.& 8 C OXuXV.N.;.| }  .9.y.9.",
"' :XyX7X*X/ S M.3XcXc.y s 2.zXnXOXd x x i & #   + +   # * < d P >.wXyX8Xb.i % { uX#./ *X9X8X;Xv.C ' ",
"3.rX1X1X8X,.i.D.3X,.8 - OXvX3XOXv x 8 & X   # # > % + +     * c v d ;XbXzX1.i & B.P.b.2X3X2X8X1X[ c.",
"=.yX7X8X$X[ n.sX>.6 i n.*XzX,.y x 5     # # # # 1 = # $ # #     5 v $.iXxXOXOX' c @X6XC.7X9XrX;X( +.",
"( C.P.2.} S yXsXx 6 n.xXuX| C v # . # $ * # # % % # * # # $ $ +   < C { v.6XP.A - ,.4Xv.:.P.C.#.) S ",
"V.M.O.@.S.L.3X>.< x v.#XL.7 8 : . # # # % - % - % 1 < - # # * % #   7 x { rX3Xv._ 9 } n.Z 5 } u.N.M.",
"N.Y.i.r.D.fXuXs s ,.bX$X7 d & . # X % & < < = > % & % < - % # % = $ . i Z A iXvXJ.& #.sXOXv U.g.i.g.",
"r.r.] k v.wXOX< 6 2.uX,.d n # # # % - < < = a l 1 p a y u y 1 % X %   & u.S P.tX,.< s @X%X[ +.h.g.9.",
"b.G.Z.v.OX@Xn.7 < yX3X{ v 6   # * < < - 1 K W q.o.z E q.o.5.8.I b - % . A _ Z $.O.x < #.v.x./ C A | ",
"1X1X$XzXjXfX~.x d jX%X] ` < + # % - - a 6.a.Y 0.6.J E 0.9.o.0.6.9.J 1 + : M.r.qX4X( < ,.iX=Xc.P 3.yX",
"#X;XXX,.$.:./ 7 6 :.{ v s * # # % y 9.w.6.q.W 8.4.K E 6.0.0.a.6.o.W u < # _ _ } $.7 5 ' c.{ A X.J.8X",
"XXXXG.) x ( A d c n.A d %   # # J 0.l.0.E 7.6.q.8.l j ..q.w.a.7.6.E a u $ 7 $.-.,.8 8 v i 8 k a 2.>X",
"d.>.c.i.(.fXtX,._ pXz.] % # # = 6.w.a.8.6.6.8.w.q.z m m E q.8.W I J l m % O.!.iXdXx 6 x.z.S i.y._ B.",
"/.N.{.{.D.L.,X-.s ,X,.d & + * - 6.a.e.6.q.W 6.e.o.z h M Y 8.6.E K h H h @ >.+X+XL.s d @XOX@.j.k.X./.",
"0.X.R.s.(.iXzXP./ xXtXC -   $ < G E l.w.7.W g W o.z H h l G G m m g e w = } Q.K.L.i { +XK.| j.a.X.R.",
"V | u.U x.3XgXK.[ gXtX_ % + , w g q k.w.6.6.Y ..W J a 1 7 y 1 1 1 y g g $ &.].sX,X9 s b.(.Z P ' A | ",
"<.S.j.j.B.P.pXc._ zXuX[ & + = , y u k.0.8.q.6.6.Y Y z o...5.o.Y 6.K - y + ;.).4XJ.5 J.,X+X' t.]._.Q.",
"+.h.h.g.f.v.B.C x ;X,X/ & X % > q a a.q.0.q.6.6.Y I J q.E 6.0.Y k.0.% k + +.eXuXiXc v.@Xx.V g.{.`.`.",
"E h.g.y.Q.cXOXv Z dXuXO.5   % - L o.0.q.0.8.6...Y Y J 0.E 5.7.K a.0.a I = +.eXpXwXs 1.<XK.Z d.{.`.R.",
"S t.d.r.J.vX,Xb / xXtX;.5   < J 6.q.q.0.0.W ..L K 6.L q.W 5...K w.e.N m = @.Q.(.+X8 n.<XB.Z -.N.] U ",
"_.`.[.R.B.cXiXc / jXeX,.5   < J 6.o.0.w.q.W 9.T w 6.W q...W 6.E q.a.J l = n.B.x.u.5 ,.#Xc.Z u.N.M.V.",
"{.'./.T.c.sX#Xv _ ,X#X} < + - J  .6.0.w.q.W 6.K t W ..0.W W E K 0.w.l N = 1.%X+XK.8 n.&XB.Z d.T.S.S.",
"r.X.&.X.=.L.#X/ #.iX@Xn i   = l o.6.0.0.q.W H H w W E q.E W E K 6.a.l l - } Q.#XJ.8 / ~.n.d ] +.+.9.",
"s u.D.N.B.L.OXZ | tX4X$.< + % l q.9.0.q.q.W l a g Y K 6.E E 6.Y W 0.l l ; O.].sXsXc _ c.J.u.!.^.C Z ",
"<.`.R.T.Q.sX4Xd A (.=XOX< X % k 6.6.0.8.0...W K h Y Y 9.Y E 6.E W 5.l b < @.D.sXiX7 S K.c.<.{.}.U %.",
"&.`.R.T.&XzXaXZ 7 #.L.u.7 X $ l W 6.6.6.e...6.K g Y Y 8.I E o.E K L z l < t.].(.K.5 Z =Xu.] 0X`.k ] ",
"] r.r.s.<.,.-.C 7 L.tX{ & X # % l 6.8.6.w.6.6.K g L L 6.L Y W L I I a z = r.eXiX~.& _ 5XJ.] r.O.v Z ",
"+.O.{ A n.b.' ] A L.,X_ * + $ $ < G W L E Y Y J z K K o.J L I L J I G G = P -XtX@X7 _ tXc.Z %.<.t.t.",
"O.O.C P K.;Xv.d [ dXzX1.% # = = e m K L K K J J j J J E l T K J G h H M @ } tXiXaXZ Z J.} / g.r.r.r.",
" .] 2.:.C.tX<XP [ sXdXb.& + > = = q u u g g 1 w y K G J a z g g a t t w + u.kXuXtXZ 7 v.x.Z 9.r.r.r.",
"{ v.@XOX#XqX4XS ( tXsXB.& + % % y z z j j j y u u I J J J z l J a g g a $ ' =X@XL.6 $.,XL.| ,.O.@.%.",
"H.H.G.G.C.J.K.Z Z tX#X{ & X # # l K K L I Y K l a I b b L m W 6.L J q u + +.N.+XL.& J.,XK.{ u.,.O._ ",
"F.F.B.u.b.L.$XZ A tX%Xv 6   * & l N b l K J l z j K l z K l Y Y l N & y + } D.+XL.% c.c._ A t.t.A S ",
"}.'.'.`.&XOXwX_ c ,.n.v 5   # & g l J l J m l j u J j a J z J K l l - a $ O.).OXn.5 :.b.c P '.'.X.d.",
"R.`.`.`.~.B.J.i v ~.<X{ y   O % < y l z z a l a < z q y l a z l z j 1 y $ S ^.3XK.7 x.<X>.P W.U.C O.",
"} y.y.y.~.wXb.i d n.~.Z $   # , 1 a z z g u a g 1 u y l l m l z z g g e % s u.eXL.& -.Q.{ d +.] P O.",
"{.`.M.v m.|.*.x 8 R O.9 @ O # % % < 1 = = = = e + < = , , e 1 1 < , $ $ # f } I.f.4 ( <.F 2 @.U.W.R.",
"`.{.!.D ~ ^ ! i : B B 3 3 +   $ & % < v S S S v :.v.,.-.,.;.} _ S i 8 7 X B ! ! ! r f ! ! 2 o &.T.U.",
"`.T.d.~ ~ F D V r F F D S z.b.L.%XJ.,XiXpXpXOXP.sXtXpX@X<XpX#Xc.tX+X#XL.L.m. X*.Q ~ ~ Q Q f 0 R U.k.",
"t.t.-.n.;.[ B.u.' p.( ` _ S n.u.{ 1.@XOXn.A.z.c.K.B.K.,.#.b.z._ A Z -.u.c.>.z.%.} c.$.b.1.J.J.2._ u.",
"R.R.U.N.r.{ N.d.h.9._ A v c N.U.d.:X2X8X2.g.{./.R.R.`.S u.d.i.+.s i.g.g.y.A ;.+.+.O.v 7XyX8X9X:X>.{.",
"T.Y.Y.R.9.@.S.h.h.r.] ] _ C T.T.d.;X8XrXC.N.{.'.`.`.`.U r.g.i.+.C j.g.g.s.P ;.+.+.+.A 7X9X7X9X*X>.`."
};
