/* XPM */
static char *_e4f4057d6224f78d1a7bf53ed7f5546bWQC0byH6doJKz8H[] = {
/* columns rows colors chars-per-pixel */
"50 50 182 2 ",
"   c #3C2B24",
".  c #412E26",
"X  c #483025",
"o  c #44332A",
"O  c #4B352A",
"+  c #4C392D",
"@  c #51372D",
"#  c #543B2E",
"$  c #583D2D",
"%  c #4F3730",
"&  c #4E3C31",
"*  c #4C3F38",
"=  c #523E34",
"-  c #593E32",
";  c #4E4037",
":  c #4E4038",
">  c #554135",
",  c #5B4335",
"<  c #5F4937",
"1  c #564439",
"2  c #5A463A",
"3  c #5D493C",
"4  c #624636",
"5  c #624936",
"6  c #60473E",
"7  c #634B3D",
"8  c #6A4E3C",
"9  c #65503F",
"0  c #6B513F",
"q  c #72533E",
"w  c #5C4C43",
"e  c #574B45",
"r  c #5E5145",
"t  c #5F534C",
"y  c #634E41",
"u  c #6A4F43",
"i  c #655144",
"p  c #6C5444",
"a  c #6F5844",
"s  c #64544B",
"d  c #6B5649",
"f  c #66584D",
"g  c #6C594C",
"h  c #715644",
"j  c #745946",
"k  c #7A5C45",
"l  c #725648",
"z  c #745C4B",
"x  c #7A5D4B",
"c  c #655B52",
"v  c #6B5D53",
"b  c #745E51",
"n  c #7A5E51",
"m  c #75604E",
"M  c #7D614D",
"N  c #6E6157",
"B  c #6E635B",
"V  c #756154",
"C  c #7C6453",
"Z  c #7F6855",
"A  c #73655A",
"S  c #796559",
"D  c #77685D",
"F  c #7C6A5C",
"G  c #776E64",
"H  c #7B6D63",
"J  c #7C7166",
"K  c #7D736A",
"L  c #805E48",
"P  c #83644D",
"I  c #89674D",
"U  c #8D6A4F",
"Y  c #916D4F",
"T  c #836653",
"R  c #896754",
"E  c #846955",
"W  c #8B6C55",
"Q  c #84675A",
"!  c #846C5B",
"~  c #8B6E5A",
"^  c #916E54",
"/  c #906F59",
"(  c #8E7157",
")  c #85705E",
"_  c #8D725C",
"`  c #947156",
"'  c #9A7557",
"]  c #93735C",
"[  c #99765B",
"{  c #96785D",
"}  c #9D795D",
"|  c #A17C5D",
" . c #876F61",
".. c #847364",
"X. c #8C7462",
"o. c #8F7864",
"O. c #83766A",
"+. c #897569",
"@. c #86796D",
"#. c #8A796C",
"$. c #937561",
"%. c #957A64",
"&. c #9B7C63",
"*. c #947D6B",
"=. c #9A7D6A",
"-. c #867B72",
";. c #8A7D73",
":. c #997F70",
">. c #A17E63",
",. c #A5805E",
"<. c #9D8267",
"1. c #97816E",
"2. c #9C826C",
"3. c #8D8074",
"4. c #8F857B",
"5. c #928174",
"6. c #9D8471",
"7. c #92877A",
"8. c #95897E",
"9. c #9E8B7C",
"0. c #A48265",
"q. c #A98466",
"w. c #A3846B",
"e. c #A9866A",
"r. c #A68A6F",
"t. c #AC8A6D",
"y. c #B08D6E",
"u. c #A28770",
"i. c #A48A71",
"p. c #AC8D73",
"a. c #A28F7F",
"s. c #B18E72",
"d. c #AE9176",
"f. c #AF937A",
"g. c #B69477",
"h. c #B59274",
"j. c #B89576",
"k. c #B99676",
"l. c #BA9877",
"z. c #B69578",
"x. c #B4957A",
"c. c #BA9679",
"v. c #B99678",
"b. c #BB987A",
"n. c #BD9A7B",
"m. c #C19D7E",
"M. c #C19D7D",
"N. c #C3A07F",
"B. c #958B81",
"V. c #9A8F83",
"C. c #979085",
"Z. c #9D9285",
"A. c #9E9389",
"S. c #A59283",
"D. c #A3968A",
"F. c #A99788",
"G. c #A7998B",
"H. c #AA9C8E",
"J. c #B79C80",
"K. c #BD9E81",
"L. c #A49C93",
"P. c #AB9E91",
"I. c #BFA085",
"U. c #ACA194",
"Y. c #AFA599",
"T. c #AFA69B",
"R. c #AFA99E",
"E. c #B2A597",
"W. c #B2A699",
"Q. c #B4AA9C",
"!. c #B9AD9E",
"~. c #B6ADA2",
"^. c #B9AEA1",
"/. c #BCB2A4",
"(. c #BAB2A9",
"). c #C19F81",
"_. c #C6A384",
"`. c #C4A182",
"'. c #CAA685",
"]. c #C1B5A6",
"[. c #C1B6A9",
"{. c #C3BAAC",
/* pixels */
"e.&.d d { 0.0.j > p 7 8 - x z 3 ` [ 1.T.V.5.y z =.t.h.y.M 1 [ [ I X 1 R k I 7 w S S *.i C.!.E.T.f w.",
"i 2.p.u.M # 3 ! u.%.a 1 X.=.2.X.M , 1 #.p.n.E  .X.g 8 3 d i 1 > 1 Z %.w.a 1 C Z z i = s ..6.*.v d %.",
"d n.t.s.s.7 p.n.g.c.p.) _.k.g.k.s.M V _.g.c.T ] M.%.w $.$.{ _ < C k.0.e.W z &.] ] ] 7 w.k.g.M.C ] t.",
"d b.s.h.0.p g.c.x.k.w.Z s.e.0.0.` q C `.g.M.k E b.U + P ~ ~ ] 5 8 w.0.t.k y $.~ ~ / 7 =.e.e.b.~ R t.",
"3 %.&.p # = T _ ] k a 3 p P W 0 5 & 2 0.&._ d z T s v 2 , h - + w h R ` i = 4 j k p = M ^ ] ] l > 4 ",
"w.~ & d ! $.E x 3 *.p.x.=.M 3 O.Z.D.7.c i _ =.T B {.{.U.J ; z %.>.$.5 i n.w.h O y %.p.w.5 p 2.p.i.z ",
"g.c.y ~ $.] ] { C x.s.p.g.s.v E.H.D.U.B.! >.{ T @.[.E.^./.A 0.&.{ =.x ! M.g.b.p 2.`.g.M.z =.`.g.c.n.",
"n.0.# z T ] %.T > h.g.g.e.P = D.H.P.H.K z >.&.W H ]././.Q.s } &.&.^ $ C M.g.M.T 2.n.x.M.h W h.p.w.r.",
"W p A v 3 < 7 + & z W k 3 y S #.O.H H v g a x 3 2 -.Z.D.;.2 d T M @ 3 f i j P > Z w.{ C s f h P W I ",
"i T.{.^.P.w 3 <.x.r., V x.n.b.h.( 1 f.`.).<.2 ! ~ C 1 y ~ $.] E O Q 6.=.X.f = ` I O B L.(./.U.O., i ",
"J ].E.E./.D _ _.g.N.C =.k.e.w.e.&.a h.s.h.n.n { ] { T ! >.] ] W 2 :.%.$.=.X.z | ' h (.{.Q.Q./.W.s X.",
"N [.^./.D.s E M.n.`.z z 0.e.e.&.j , >.h.s.&.i { ] { p d [ { $.x O X.=.*.=.d 3 | ' 4 B.Q././.].U.w x ",
"w ;.8.H f d T { ] ] i A H z 0 - 3 y h P a < 3 p k , i ! a a p v -.N i Q 7 1 z M 8 + Z F J 8.;.v r 3 ",
"%.$.z l 0.>.} [ 5 w {.{./.U.f u.n.b._ i X.X.$.a O 2.n.n.g.i B.{.[.Q.V.t ! K.n.w.> u.n.g.P   f ! &.$.",
"=.w.~ T q.[ [ >.L A {.E.Q.^.O.c.s.c.&.7 %.X.X.~ 3 n.b.h.l.! ~.!.E.E.].3.h.g.h.b.M x.p.z.0.y w.` ~ ] ",
"T T u , I ` } >.k w E.!./.^.N w.g.h.z   y ~ T g O T } e.s.b L././.!.Q.v &.M.p.W > w.g.p.( = W ] ] P ",
"@.;.7.O.1 - k h 3 s g f c O.n 7 p ~ ! X.C & 3 a E j # > a m F #.7.@.F 7 O p Z Z ! C a Z X.o.C 7 1 f ",
"E.E.U.U.5.A * C *.$.~ Q = p x x = p.N.b.n.E >.| } | x y r.0.| [ 8 W [ | ` + <.k.s.h.l i.`.n.n.] G {.",
"P.H.U.D...+.v %.$.~ ~ $.y n l 7 . { h.h._ , ^ ' ' } k 8 } ` [ } 5 [ } [ | 8 %.s.w.e.k w.b.x.n.>.3./.",
"Z.A.4.H f s i p T ~ C p o = 1 m $.C 5 < d X.C h P k 1 d X.X.~ d r z j q 8 & y h k I , _ k.] k O H W.",
"_ S _ ! =.t.p.~ l > 1 i & V n.n.n.M.T 3 `.g.h.w.7 S x.K.n.n.t.O.(.U.B.t 4.T.U.B.B g z 3 + 3 E R w *.",
"s.=.b.b.g.t.r.t.g.z P q.k i.b.h.g.b./ C c.s.s.h.x u.M.g.g.g.t.#.!.E.E.B.{.!.!.].L.b W z = W 0.` j s.",
"I j r.{ { e.y.t.>.8 k | j w.M.g.e.h._ M t.] ` 0.k 2.b.k.n.n.t.A T.W.U.J U.!./.].D.y h 1 % W >.^ j r.",
"> d E 9 , p M W M y p j 3 E ] ~ C j 3 o w f A A & g _ E T E C z _ V e w d v H ;.v : b Z b 3 p y 2 d ",
"Z >.} } } ` 3 ~ { } [ ] h S p.p.x.h.&.H U.U.U.U.c F 2.=.p 8 >.} ' I > $.~ T x . d J.).M.'.i E x.d.i.",
"k [ ] ` ] [ a [ } ` ` } k ] M.h.s.g.e.#.E.D.D.P.B ..=.2.C k | ` [ ' y Q T T T y K.b.g.h.b.p _ b.h.g.",
"q [ ] ] ] k # P W ' U U 5 C g.0.>.&.{ A Z.H.D.Z.s V 6.=.p 7 [ ` U 8 & z x C n > <.g.b.b.b.7 $.n.h.r.",
"3 E ~ ~ j C ~ E p 3 C ) X.2.~ z p j C C m w A ! V z p p d p z 8 O > g S z d 1 3 z z E W z o Z %.a 5 ",
"f.x.x.p.l e.q.e.>.E I.n.M.b.x.x._ $.t.t.0.< $.0.&.0.z C q.| | I g x.g.h.p.p.g C / E n w ! z ! =.%.%.",
"b.g.s.t.z q.q.q.} %.M.b.b.k.b.n.%._ e.0.&.8 $.&.{ &.x P ,.[ } U E k.r.t.e.h.M x ~ W R z ] z _ e.>.>.",
"R j x z 1 j M R M C =.%.&.0.P h 7 M >.} ] 1 l T R M > 8 k P ' j y ] ] ] R E 3 y j p h 1 x 8 p k k P ",
"o ! 2.<.2.~ & 2.w.2.=.%.M O J B.A.Z.V E _ E C 7 y _ u.d._ p > ! w.2.<.1 ) 2.6.6.2.%., d x.d.p.r.1 1 ",
"Z g.t.t.t.0.y x.g.h.g.c.0.i /.!.E.!.;.M ] W ` 8 =.'.b.k.M.s.z ).k.g.b.l p.b.n.b.b.t.q C ).k.b.b.5 n ",
"M h.t.t.s.I 7 g.g.s.>.} ^ 1 A.P.P.W.J x ] ~ / > $.M.g.g.c.0.7 s.g.g.b.j =.s.t.t.t.t.q z _.b.n.g.# p ",
"p T T ] k # & M ~ _ j l j + w V f D s = j 8 + + i p 4 8 M C d m ! ] ] y d M M j 0 j p i $.] E z - 1 ",
"x z a 3 _ ] =.%.M i %.$.$.%.j 1 $.&.&._ a = ! &.] W j 1 %.=.=.$.~ 3 ! %.$._ _ T 3 X.%.%.g = C Z ! E ",
"z z - p 0.0.0.>.R p ^ W ] } 0 p &.&.&.0.W p 0.&.{ ` W 2 W W ` [ ^ - W ` ] ] W P y X.T ~ ~ d ] R T T ",
"h p H D V l 8 d Z ! ~ E h = 1 z z p M C p i C 8 l C ! X.X.T h i i w b n n p p d f z b V 1 o T T T T ",
"d O.G.S.S.7.f i.c.h.y.k.M z >.} [ ` 8 *.x.n.x.E S n.c.c.g.n.] ;.F.S.S.9.9.f %.<.=.=.=.&.W 1 ! l l n ",
"4.7.3.4.#.A i 0.t.s.t.t.j W } [ ` Y 8 x.M.k.b.W z k.p.h.t.w.R @.S.a.S.S.5.w $.&.] W T W k 1 ! C z y ",
"2.1.*.X.i 3 l p M W T p = i k x 9 p y a T _ m b V E E T i d d d V S D v w d z 8 i g a > V ! E E 1 3 ",
"l.k.g.b.&.a [ T > *.<.r.p.p.C 7 { [ } ] > n %.$.{ $.x 3 ~ ~ ] ] W 8 3 W &.0.>.j _ 0.>.C h.h.h.k.j _ ",
"t.h.g.b.] , W I , n.M.b.k.M.] z | ` ^ ` , z ] ~ ~ ] h 8 [ W T k 8 @ w.y.q.>.q.T / } ] z s.h.t.0., z ",
"g ! R ] M i E z 3 ! W W R _ j 8 W I M M d m z k k p i i 8 j > > y & M W M k M > 1 l j 3 j 9 h p 7 z ",
"n.h.<.3 E h.h.p.x.l O j z M C E p d i.r.h.s.r.i g w.s.g._ > X.2.6.6...1 E ] >.p ! &.] ] P > &.t.y.t.",
"g.k.M.r.P W } e.t.k W &.] ` ] [ P z b.t.e.e.k.k { h.e.e.0.p &.~ W W W p t.t.0.p ] } ` ` | 8 &.t.0.0.",
"h.w.=.M M I j j j , W [ ` ] W k 5 g } } t.0.P 1 z { >.t.>.< ~ ~ ] ] T , &.P i w M W [ I h w C ` >.] ",
"Z ! T 5 9 p C _ T < & p h j p ! X.U.V.D 7 i X.x.p.=.~ z z i i y y p 3 i 5 & Q C d 7 5 D L.{.P.O.y ! ",
"r.t.t.y.E d w.{ &.W y 6 > & w.y.] T.{.{.K =.`.h.g.k.c.3 ! &.$.x o ! { } ` 7 Z n C n 1 (.{.^.{.R.D n.",
"e.w.0.e.P l =.] { T p p y , e.0._ U.^./.-.&.b.h.h.s.g.5 T ~ ~ x , } ` ^ ^ 3 n x x z 2 ~./././.U.S h."
};
