/* XPM */
static char *f2b2d00dc5a14f03db6f83c5bd53ffe4DTUH1nMHXXxFUFph[] = {
/* columns rows colors chars-per-pixel */
"50 50 172 2 ",
"   c None",
".  c #2E1F15",
"X  c #2B260C",
"o  c #312218",
"O  c #3A261C",
"+  c #3F2A1E",
"@  c #3D2E21",
"#  c #3D3322",
"$  c #282B36",
"%  c #283E31",
"&  c #432D23",
"*  c #403126",
"=  c #7E3D34",
"-  c #27491B",
";  c #1F4522",
":  c #294B27",
">  c #3F4026",
",  c #394C24",
"<  c #29512E",
"1  c #2C5727",
"2  c #365429",
"3  c #3A542A",
"4  c #365928",
"5  c #3B5D2C",
"6  c #384F3E",
"7  c #315E33",
"8  c #3B5E3F",
"9  c #1C6633",
"0  c #3C612D",
"q  c #37692F",
"w  c #34622F",
"e  c #356433",
"r  c #3E6431",
"t  c #3C6B33",
"y  c #39663D",
"u  c #3B6C3A",
"i  c #376A34",
"p  c #3E7A3E",
"a  c #3A7438",
"s  c #4D4F2C",
"d  c #415C2F",
"f  c #5B4435",
"g  c #4F5338",
"h  c #54583C",
"j  c #79493E",
"k  c #426533",
"l  c #456C36",
"z  c #486B3B",
"x  c #48693B",
"c  c #52683E",
"v  c #526033",
"b  c #487037",
"n  c #45733B",
"m  c #4A743B",
"M  c #4D7A3D",
"N  c #437639",
"B  c #56783F",
"V  c #383C48",
"C  c #333646",
"Z  c #374F41",
"A  c #395940",
"S  c #44544C",
"D  c #4F535E",
"F  c #515B5A",
"G  c #675242",
"H  c #6A5545",
"J  c #7C5C4B",
"K  c #795945",
"L  c #44644A",
"P  c #467948",
"I  c #497945",
"U  c #527344",
"Y  c #527D42",
"T  c #517349",
"R  c #4D6250",
"E  c #667A45",
"W  c #607F5E",
"Q  c #5D6967",
"!  c #566360",
"~  c #687F6A",
"^  c #647868",
"/  c #656C72",
"(  c #9A2A29",
")  c #8C2D32",
"_  c #A42A2C",
"`  c #A73F36",
"'  c #C63437",
"]  c #855A3A",
"[  c #884D42",
"{  c #855949",
"}  c #945D4B",
"|  c #81624D",
" . c #88604F",
".. c #9A614F",
"X. c #856B56",
"o. c #856E5B",
"O. c #896A56",
"+. c #9B6F5F",
"@. c #817F55",
"#. c #96745E",
"$. c #A6755F",
"%. c #8B7361",
"&. c #997260",
"*. c #937C66",
"=. c #957D68",
"-. c #977764",
";. c #A27F6D",
":. c #4D8542",
">. c #558444",
",. c #5B8647",
"<. c #578947",
"1. c #508248",
"2. c #598049",
"3. c #508D49",
"4. c #5B8C4B",
"5. c #5A8D47",
"6. c #57904C",
"7. c #5E924D",
"8. c #5C9B52",
"9. c #69874A",
"0. c #628C4D",
"q. c #61944E",
"w. c #609B4F",
"e. c #638B56",
"r. c #658D5C",
"t. c #6A8856",
"y. c #639251",
"u. c #639B52",
"i. c #699E56",
"p. c #6A9B5C",
"a. c #67945A",
"s. c #719653",
"d. c #65A154",
"f. c #69A356",
"g. c #6CA55A",
"h. c #6EAA5B",
"j. c #71AF5D",
"k. c #73B25F",
"l. c #769C6A",
"z. c #719C62",
"x. c #71A263",
"c. c #75AA63",
"v. c #7CAD6C",
"b. c #75B461",
"n. c #79B666",
"m. c #7BB569",
"M. c #7EB86B",
"N. c #9F9C5C",
"B. c #9C9465",
"V. c #A78471",
"C. c #AB8974",
"Z. c #A58E78",
"A. c #B08872",
"S. c #AE917A",
"D. c #B4927C",
"F. c #80B56F",
"G. c #81B86F",
"H. c #90B065",
"J. c #85B576",
"K. c #84BA73",
"L. c #88BD77",
"P. c #8BBC7B",
"I. c #BCB575",
"U. c #C5BE72",
"Y. c #8FC17F",
"T. c #91BD82",
"R. c #97C289",
"E. c #9EC691",
"W. c #A2C796",
"Q. c #A7CA9C",
"!. c #A8CA9D",
"~. c #ADCCA3",
/* pixels */
"                                                                                                    ",
"                                                                                                    ",
"                                                                                                    ",
"                                                                                                    ",
"                                                                                                    ",
"                                                                                                    ",
"                                                          M 3                                       ",
"                                                        5 h.i.5                                     ",
"                            M 4                         m b.b.i.                                    ",
"                            g.b                         4.K.b.b.5.                                  ",
"                          2.P.<.                        c.E.b.b.h.                                  ",
"                          e.E.h.4                     m P.Q.b.h.u.r                                 ",
"                          e.W.M.5.                    u.Q.!.u.5                                     ",
"                          M P.P.k.>.                b F.~.T.m                                       ",
"                            u.L.g.4.Y 5.7.7.<.U     u.E.R.b.l                                       ",
"                            k 7.r.v.n.b.b.b.n.P.z.M K.R.n.b.u.2                                     ",
"                              U m.b.b.b.h.8.u.P.v.g.L.n.k.b.h.m                                     ",
"                              1 3.k.b.k.p 9 a b.b.b.b.b.b.h.Y                                       ",
"                              e p j.b.b.u.b B ,.h.b.k.g.q.                                          ",
"                              E y.b.b.b.>.s I.N.,.b.i.k                                             ",
"                              @.c k.b.b.d X B.U.9.m.m.q.                                            ",
"                            3 v , f.k.b.Y 3 E H.c.m.n.7.                                            ",
"                          q.g.f.i.f.k.b.b.G.n.K.M.n.g.                                              ",
"                          q.b.k.d.b.b.b.b.b.b.g.k.j.Y                                               ",
"            { J #.$.}     M k.h.u.b.h.g.k.k.f.q.j.<.                                                ",
"             .C.A...= }     7.j.f.u.u.7.7.q.0.f.M - 0 m M m 0                                       ",
"          -.C.D.D.[ ) { O.    l 2 M u.i.7.7.y.r q w.h.j.h.j.h.u.M           & O                     ",
"        =.=.=.Z.S.&.j +.H o             M g.J.x.d.b.j.7.b b <.f.j.f.5.M > O                         ",
"      J G G o.*.X.o.;.V.%.* .         >.h.:.x.Y.M.k.k.k.u.      m g.b.h.k                           ",
"        f o.*.|     X.%.o.@ .       ] s.M   4.P.l.b.b.P.P.Y       <.f.>.                            ",
"        K | |                     _ ' `       a.~ c.M.P.P.l.# + O d                                 ",
"                                    (         m ^ r.n.J.t.g @                                       ",
"                                            U c.^ F T h h t.x                                       ",
"                                            < Y R C $ x p.e.:                                       ",
"                                          y y < % V D 6 : ; :                                       ",
"                                          u P P 7 Z / / A e e 1                                     ",
"                                          1.I n u e 8 Q / L 7                                       ",
"                                        7.6.i e i t t I ^ ! S                                       ",
"                                        d.N     w       4.p.W F                                     ",
"                                        f.a               f.h.z                                     ",
"                                      q.d.t               4.k.>.                                    ",
"                                                            h.7.                                    ",
"                                                            h.g.                                    ",
"                                                            i.0.                                    ",
"                                                                                                    ",
"                                                                                                    ",
"                                                                                                    ",
"                                                                                                    ",
"                                                                                                    ",
"                                                                                                    "
};
