/* XPM */
static char *b3083188fc1f4af1c164acc227a92548sDSO1COCb4haVAOG[] = {
/* columns rows colors chars-per-pixel */
"50 50 136 2 ",
"   c #17110F",
".  c #1C1515",
"X  c #1F1814",
"o  c #231A16",
"O  c #201718",
"+  c #241C1A",
"@  c #2A1F1B",
"#  c #2C211D",
"$  c #31241F",
"%  c #2F2320",
"&  c #332621",
"*  c #362922",
"=  c #3B2C24",
"-  c #3E2E28",
";  c #3F3026",
":  c #3F3128",
">  c #402E26",
",  c #402E28",
"<  c #423126",
"1  c #44332A",
"2  c #4A362C",
"3  c #47392C",
"4  c #4D392E",
"5  c #513B2E",
"6  c #4D3B31",
"7  c #543D31",
"8  c #583F32",
"9  c #554134",
"0  c #5B4335",
"q  c #5E4937",
"w  c #574439",
"e  c #5D4639",
"r  c #5E493B",
"t  c #614637",
"y  c #624837",
"u  c #624739",
"i  c #644A3B",
"p  c #6A4E3C",
"a  c #6D513E",
"s  c #72533F",
"d  c #5F4D41",
"f  c #674E40",
"g  c #675040",
"h  c #6D5342",
"j  c #6F5848",
"k  c #735542",
"l  c #795744",
"z  c #755945",
"x  c #7B5B45",
"c  c #755B49",
"v  c #7C5D49",
"b  c #7D614C",
"n  c #7F6351",
"m  c #815E46",
"M  c #815E49",
"N  c #826147",
"B  c #84624B",
"V  c #8A654D",
"C  c #87684F",
"Z  c #8C694F",
"A  c #916A4F",
"S  c #856651",
"D  c #8A6651",
"F  c #8A6750",
"G  c #846853",
"H  c #8E6A50",
"J  c #8D6D53",
"K  c #886A55",
"L  c #8C6B52",
"P  c #8F6E58",
"I  c #936B51",
"U  c #926D52",
"Y  c #946E52",
"T  c #906E54",
"R  c #926E56",
"E  c #956F54",
"W  c #936D53",
"Q  c #8F7055",
"!  c #8E7059",
"~  c #937056",
"^  c #957157",
"/  c #967157",
"(  c #957156",
")  c #997255",
"_  c #987156",
"`  c #987357",
"'  c #997256",
"]  c #937258",
"[  c #967058",
"{  c #957359",
"}  c #94725A",
"|  c #95725A",
" . c #97775D",
".. c #95735A",
"X. c #997459",
"o. c #9D765A",
"O. c #98745C",
"+. c #9A755A",
"@. c #9A785B",
"#. c #9D7A5F",
"$. c #9E7B5F",
"%. c #9C795D",
"&. c #A07A5E",
"*. c #A37A5E",
"=. c #A37C5F",
"-. c #A27B5D",
";. c #9E7D63",
":. c #9E7E63",
">. c #9E7D63",
",. c #A47D60",
"<. c #A57D62",
"1. c #A27E61",
"2. c #A48163",
"3. c #A78263",
"4. c #A78363",
"5. c #A18164",
"6. c #A28266",
"7. c #A38266",
"8. c #A48065",
"9. c #A48264",
"0. c #A68467",
"q. c #A48165",
"w. c #AB8366",
"e. c #AA8363",
"r. c #A58368",
"t. c #A48269",
"y. c #A78468",
"u. c #A6866A",
"i. c #A58469",
"p. c #AE8668",
"a. c #A9866A",
"s. c #AE886A",
"d. c #A9896C",
"f. c #B68E6F",
"g. c #B68C6B",
"h. c #B48F71",
/* pixels */
"<.3 2 *.V z } Z 0 = Z N 7 / C 0 7 M 2 9 m h i 3 @ : i 9 :.k 2 i < h s V 7 :.B & 0 V 0 & v i * 6  .2.",
"f.6 3 <.C c } E 0 3 U x 4 R B 9 5 p = 5 B : 9 i $ < p 7 5.z 2 p 1 p x V 7 t.x = 2 0 : & B u * 9 5.2.",
"9.1 6 *.C c O.) 0 5 E B 4 L m 0 0 4 < > B 3 v x , < a w 5.z 2 k 2 p v m 7 t.B & k M i 1 N t & r h.] ",
"C < 3 =.V c } Y i 7 ) Z 2 B V 4 $ < @ 7 A 7 c l = & 8 9 0.x 2 x 7 p x x k h 9 $ D B k 7 M y o 7 K k ",
"9.i 2 w.H k ~ ) r 7 +.V 3 B B 3 2 M 1 i A 0 c l , . * 1 y.z 4 v 7 p x b h p 4 * B B N 9 N y r h @.2.",
"$.h 4 p./ z R o.0 4 } B > V N 4 7 M 7 t U 0 c x = * u < y.z 7 M 7 p x B 6 n v = c B B 9 x i 9 z s.$.",
"] j < o.} z R H 1 2 U B = V D 7 7 B 7 0 Y r b x = 2 k 3 1.M 7 M 7 a x B r 9.$.> v H B 7 x p + r 1.+.",
"P z 9 <.+.z H H * < U N < U V 9 4 B 7 0 Y 0 b x = 1 p 1 } v 7 N 7 p k B w y.O.= v E B 4 x a # h >.1.",
"P q 9 =.U v V } 7 < / V 4 E H 0 2 B 5 0 Y 0 b x = = k 3 R z 4 m 7 p k B r y./ = v } N 3 l i # h  .} ",
"` 3 3 *.Z S V U r < B p 1 R V r 2 B 4 0 Y 0 S x = = l 7 H z 7 l 7 9 k B r d./ * N +.x = k p & i P  .",
"3.5 3 Y x S F H t * 4 0 2 / V r 2 B 4 0 E 0 S x * : x 7 Z v 7 k 7 7 x m q d.} & B +.a = l t # 0 O.w.",
"w.y 4 } i b P L i 3 3 1 6 O.V 0 4 B 5 u Y 0 G x * 2 x 6 H B 7 k 7 k x B r ! b @ C o.s = k 5 + w 9.O.",
"w.i 2 =.] K F R 0 0 x 0 6 / B 0 9 V 7 i U 0 G x & 3 k 4 } B 9 k 9 z x N 5 5 9 = F +.x < i < + r 5.~ ",
"9.p 3 =.w.} S U 0 0 m x q Z B 0 0 V 7 u A 0 c z & $ > = +.V 0 k 9 k x N 2 4 2 & F L x 3 a < # d $.] ",
"$.p 3 o.+.S S Z i 0 x x 0 / Z 0 r D 7 0 U 0 h k & # 4 * R V i x 0 z b U 6 ! B = c N N 2 x 9 # r }  .",
"O.i < *.k z F Z i 0 m N r +.B 0 r U 0 7 U 0 B k # 2 M 9 F B p x 0 z B Z 7 1.$.1  .1.x 2 x i # r ~  .",
":.q < <.S C C L t i B M 0 / x 7 r U 0 0 U 0 B k + 5 x 9 F x p s t k V Z 9 <.o.2  .+.x 3 N p # q  .] ",
":.i < <.D G L N 5 i V m 9 U x 4 r Z 9 0 Z 4 B a + 5 x 9 P Z p s 0 z B U w 9.o.2 ] ~ v 7 B p # w  .~ ",
"5.p = *.F S Z V 9 0 H m 9 U x 4 7 Z 0 0 Z 4 x p + 7 l 9 P H p x u z m Y r w.*.4 R U k 2 N p # 0 +. .",
"w.p = 1.R c U H 0 i V M 4 Z B 4 7 E 7 0 A 7 k p + = p 6 ~ C i x y z B Y q d.o.4 ~ L p 2 x i $ q 1. .",
"2.i < 1.] x Y B u p C B 3 V V 7 7 U 0 0 Z 7 i 0 X $ 7 0  .V i l 3 k l / i d./ 6  .Z z 2 k t & i 9. .",
"$.i 3 1.P c / M i p V V 4 V Z 7 5 I 0 0 B 0 5 9 $ $ = 6  .N u x 7 u B x i 2.3.4 Q U x < p 0 $ p 5. .",
"+.h < =.L h +.v i p V V 6 V H 7 4 E 0 0 V 8 * < + * 0 1 P l 9 x 0 i G p i t.+.5 v ` M < h 0 $ g $. .",
"R h 3 =.N i / v i i B B 4 V U 9 3 Z 0 0 H 5 9 0 # 1 M 0 B y 4 x 0 s p V r w.+.t B +.N 2 m 0 # h $.~ ",
"V p 6 o.x B L x p 0 B B 4 V Y 0 < B 0 7 B 7 x V 3 1 x 9 P 0 4 v 0 p D Z 0 0./ i B ) B 3 V p % h  .Q ",
"Z r 3 U p h U x p 0 N m 4 B x = * B 0 1 V 9 z x 2 4 x 9 >.p 3 M 0 p N V r :.Y i k M p < M k $ h  .K ",
"E 6 4 R 5 h F c q 7 F B 7 N 4 = & M 0 5 U 7 c x 3 2 x 0 >.x 7 x r p M V w >.$.9 p B p o 0 x $ b  .G ",
"%.4 4 Z < z +.<.h = a k 1 9 i 2 # x 0 5 Y 7 v x < 3 k w :.k 7 M 0 p N V 0 w.o.2 0 p 4 + 0 x & f 1.B ",
"O.4 3 o.K w 0 9 7 4 0 i < q x 2 & x 7 4 E 7 B x - 3 s w y.h 7 M 0 p x V 0 9.s 1 2 i 2 @ s s $ i 1.C ",
"E 9 3 o.$.B R < 7 > 7 i * +.N 4 = M 7 4 Y 7 b x * 3 k q K y 6 N 7 p x V 9 ] V 1 q Y M & 0 > & 0  .C ",
") 0 = o.P z %.h 0 4 p M : $.D 4 < M 0 4 Y 5 b x * * x q i 5 2 B 7 p x C 9 ~ V 1 k ) v 2 V 0 + 1 P V ",
") 0 : z 7 i +.j r 5 p B : $.F 4 1 m 9 2 Y 7 b l * X = = K # 1 B 7 9 x V 7  .L = l o.M 1 B i O 4 } U ",
"/ 9 < } F h } c r 7 p E 3  .D 4 2 B 7 4 U 7 b z & * 7 1 d.* 2 B 9 2 x V 0 ] B < z *.B < B y * r P / ",
"R 7 3 g.~ z P S h 7 p ) 2 ~ S 3 4 M 7 5 Z 7 b x & 4 x r 9.1 2 M 7 7 x V r } o.2 c p.a = B i * p F L ",
"U 7 7 3.L c F K c 8 p E 1 Z S 4 2 M 2 7 U 9 b l $ 7 x e w.6 2 M 7 y v V r >.1.7 p Z s 1 M i = i P Z ",
"U 7 6 o.F c B ! j 7 p E 1 Z D 5 2 x 1 8 U 0 b l & 7 M r y.2 4 M 7 i x V 0 6.1.7 i x V 1 M i + 1 Q Z ",
"U 9 3 &.V c x K a 8 i U < C B 5 < x 1 0 U 0 c k $ 7 m i y.1 7 M 7 p M Z 7 :.=.4 v } B 2 M i # 3 L U ",
"H 7 2 Y N z k S a 0 i U > C V 5 3 M 4 0 U 0 c k # 7 M a :.: 7 M 4 p B V 9 :.` 4 S +.B 3 B i & 3 Z / ",
"Z 4 3 U C z a ~ k 0 i H = V E 4 : i = q Z 7 c k # 7 M p O.- 9 m 4 a C V 9 5.+.4 S / B 3 B p # 3 V / ",
"V 4 3 =./ a a O.z 0 i H 1 C / 5 # 7 $ i V 7 c k @ 7 M p O.1 7 x 2 a V V 9 w.$.5 b H N 2 M h * 7 V ) ",
"H 2 3 o./ a p  .x 8 i E 2 N ) 7 4 V 7 0 M 7 x a + 7 x i  .6 7 M 3 k V B 9 ! z = B H v 4 M a = 7 H +.",
"U 1 3 ) %.p 0 $.z 8 i ) 4 x ) 5 6 V 0 2 i 7 0 5 o 2 a y  .3 5 x 1 h H V 7 a 0 # k k V 4 m a & 4 U / ",
"U 1 < / o.a 9 $.k 0 i / 4 v X.2 2 H 8 2 x 0 7 2 o * 0 u $.6 4 x 2 * 9 V 7 c i 1 i p V 3 m a = 7 U F ",
"~ 2 < U / p 0 N p i p / 4 x ) 2 4 H 7 5 V 0 9 k $ : i i <.6 4 l 1 4 0 V w t.C 3 k k V 3 m a = r / L ",
"x = < V L p 9 H p i a / 7 z E = 4 H 0 1 B 7 a Z < 6 p p 1.3 4 k 1 z B U r :.H 1 x M M = 0 2 * 0 c p ",
"x 1 1 N Z h 0  .p t k Y 7 x P & 4 V 0 < a 7 a B 1 6 p p :.3 7 k < k v U i :.V < M k M = a 7 = 0 F z ",
"a = = ) <.a 0 H 0 y k U 0 x H < 7 B 0 1 t 7 h B 1 4 s i :.1 7 x < k l V i O.B = C V M * 9 = * p C p ",
"4   < *.&.a i C 0 p x Z 0 x B 1 0 B 0 7 p 7 z V < < p i $.3 4 x 2 h s x i  .x = B Z x 2 l 7 = 0 a 0 ",
"1.# = <.+.a i ` a p x B 0 v B 2 t B 7 0 B 0 v V < = s i O.6 2 x 7 a k B i  .M = x V l 1 k 7 - 7 P R ",
"o.1 = <.} a p U a p v x 0 x B 5 t N 7 0 H 0 S B < 7 v u  .6 4 x 7 s x Z i | M * z C p - k 4 - w } F "
};
